<?xml version="1.0" encoding="UTF-8"?><svg id="Capa_2" xmlns="http://www.w3.org/2000/svg" viewBox="0 0 20 20"><defs><style>.cls-1{fill:#fff;}.cls-2{fill:#117bb8;}</style></defs><g id="Capa_1-2"><g><path class="cls-2" d="M10,20h0C4.48,20,0,15.52,0,10H0C0,4.48,4.48,0,10,0h0c5.52,0,10,4.48,10,10h0c0,5.52-4.48,10-10,10Z"/><g><g><rect class="cls-1" x="5.47" y="7.77" width="2.07" height="6.69"/><path class="cls-1" d="M6.49,6.9c.68,0,1.22-.55,1.22-1.23s-.55-1.23-1.22-1.23-1.22,.55-1.22,1.23,.55,1.23,1.22,1.23Z"/></g><path class="cls-1" d="M10.84,10.95c0-.94,.43-1.5,1.26-1.5,.76,0,1.13,.54,1.13,1.5v3.51h2.06v-4.23c0-1.79-1.02-2.66-2.43-2.66s-2.01,1.1-2.01,1.1v-.9h-1.99v6.69h1.99v-3.51Z"/></g></g></g></svg>