<?xml version="1.0" encoding="UTF-8"?><svg id="Capa_2" xmlns="http://www.w3.org/2000/svg" viewBox="0 0 36.72 20.52"><defs><style>.cls-1{fill:#006dff;}</style></defs><g id="Capa_1-2"><g><path class="cls-1" d="M5.32,10.58c2.55,0,4.62,2.07,4.62,4.62s-2.07,4.62-4.62,4.62c-1.23,0-2.39-.48-3.27-1.35s-1.35-2.03-1.35-3.27c0-2.55,2.07-4.62,4.62-4.62m0-.7c-2.94,0-5.32,2.38-5.32,5.32,0,2.94,2.38,5.32,5.32,5.32s5.32-2.38,5.32-5.32-2.38-5.32-5.32-5.32h0Z"/><path class="cls-1" d="M24.75,10.64c-1.74,0-3.28-.84-4.25-2.13h0l-.07-.11c-.05-.06-.09-.13-.14-.2l-3.81-5.55c-.16-.28-.35-.55-.55-.79h-.01c-.96-1.14-2.39-1.86-4-1.86-1.74,0-3.28,.85-4.24,2.16h0l-.02,.03c-.08,.11-.16,.22-.23,.34L1.44,11.56c.97-1.04,2.35-1.69,3.88-1.69,2.05,0,3.82,1.16,4.71,2.86h.01l3.48,5.26s.03,.05,.05,.08v.02h.01c1.01,1.47,2.7,2.43,4.62,2.43,.06,0,.12,0,.18,0,.06,0,.12,0,.18,0,1.79,0,3.38-.9,4.32-2.27h0v-.02s.04-.05,.06-.07l6.15-9.77h0c-.96,1.36-2.55,2.25-4.35,2.25Z"/><path class="cls-1" d="M24.75,.7c2.55,0,4.62,2.07,4.62,4.62s-2.07,4.62-4.62,4.62-4.62-2.07-4.62-4.62S22.2,.7,24.75,.7M24.75,0C21.81,0,19.43,2.38,19.43,5.32s2.38,5.32,5.32,5.32,5.32-2.38,5.32-5.32S27.68,0,24.75,0h0Z"/><path class="cls-1" d="M35.48,11.88L29.2,2.41s.31,1.22,.39,3.07"/><g><path class="cls-1" d="M29.2,2.41l.05,.08c-.04-.07-.06-.09-.05-.08Z"/><path class="cls-1" d="M36.16,12.91h0v-.02c-.2-.36-.42-.71-.68-1.01L29.26,2.5s.02,.03,.02,.05c.49,.81,.78,1.75,.78,2.77,0,2.39-1.58,4.41-3.75,5.08-.48,.15-1.01,.24-1.57,.24-.18,0-.35,0-.52-.03-.07,0-.14-.02-.2-.03-.1-.01-.2-.03-.3-.05-.09-.02-.17-.04-.26-.06-.07-.02-.15-.03-.22-.06-.1-.03-.2-.06-.29-.1-.05-.02-.11-.04-.16-.06-.11-.04-.21-.09-.32-.14-.04-.02-.07-.03-.11-.05-.11-.06-.23-.12-.33-.18l-.07-.04c-.12-.07-.23-.15-.34-.23l-.03-.02c-.12-.09-.23-.18-.35-.28l5.74,8.68c.07,.12,.15,.23,.23,.34l.02,.03h0c.96,1.3,2.49,2.16,4.24,2.16,2.9,0,5.25-2.35,5.25-5.25,0-.85-.21-1.64-.56-2.35Z"/></g></g></g></svg>