<?xml version="1.0" encoding="UTF-8"?><svg id="Capa_2" xmlns="http://www.w3.org/2000/svg" viewBox="0 0 20 20"><defs><style>.cls-1{fill:#006dff;}</style></defs><g id="Capa_1-2"><path class="cls-1" d="M10,0h0C4.48,0,0,4.48,0,10s4.48,10,10,10h0c5.52,0,10-4.48,10-10S15.52,0,10,0Zm4.24,7.83c.14,3.08-2.16,6.5-6.21,6.5-1.23,0-2.38-.36-3.35-.98,1.16,.14,2.32-.18,3.24-.91-.96-.02-1.76-.65-2.04-1.52,.34,.07,.68,.05,.99-.04-1.05-.21-1.78-1.16-1.75-2.17,.29,.16,.63,.26,.99,.27-.97-.65-1.25-1.94-.68-2.92,1.08,1.32,2.69,2.19,4.51,2.28-.32-1.37,.72-2.68,2.13-2.68,.63,0,1.2,.27,1.6,.69,.5-.1,.97-.28,1.39-.53-.16,.51-.51,.94-.96,1.21,.44-.05,.86-.17,1.26-.34-.29,.44-.66,.82-1.09,1.13Z"/></g></svg>