<?xml version="1.0" encoding="UTF-8"?><svg id="Capa_2" xmlns="http://www.w3.org/2000/svg" viewBox="0 0 20 20"><defs><style>.cls-1{fill:#006dff;}</style></defs><g id="Capa_1-2"><path class="cls-1" d="M10,0C4.48,0,0,4.48,0,10s4.48,10,10,10,10-4.48,10-10S15.52,0,10,0Zm-2.46,14.46h-2.07V7.77h2.07v6.69Zm-1.04-7.56c-.68,0-1.22-.55-1.22-1.23s.55-1.23,1.22-1.23,1.22,.55,1.22,1.23-.55,1.23-1.22,1.23Zm8.8,7.56h-2.06v-3.51c0-.96-.37-1.5-1.13-1.5-.83,0-1.26,.56-1.26,1.5v3.51h-1.99V7.77h1.99v.9s.6-1.1,2.01-1.1,2.43,.87,2.43,2.66v4.23Z"/></g></svg>