<?xml version="1.0" encoding="UTF-8"?><svg id="Capa_2" xmlns="http://www.w3.org/2000/svg" viewBox="0 0 24.89 28.55"><defs><style>.cls-1{fill:#006dff;}</style></defs><g id="Capa_1-2"><path class="cls-1" d="M0,14.28C0,11.96,0,9.63,0,7.31c0-.12,.04-.19,.14-.25C4.2,4.72,8.26,2.38,12.31,.04c.09-.05,.15-.05,.25,0,4.06,2.33,8.12,4.66,12.19,6.99,.1,.06,.13,.12,.13,.23,0,4.67,0,9.34,.02,14.01,0,.1-.03,.16-.12,.21-4.06,2.34-8.12,4.68-12.17,7.02-.09,.05-.16,.05-.25,0-4.06-2.33-8.12-4.66-12.19-6.99-.1-.06-.14-.11-.14-.23,0-2.34,0-4.67,0-7.01H0Zm20.74-4.96c-.08-.05-.13-.08-.18-.11-2.69-1.54-5.38-3.08-8.06-4.62-.09-.05-.15-.04-.23,0-2.69,1.57-5.38,3.14-8.07,4.71-.09,.05-.13,.11-.13,.21,.01,3.12,.03,6.25,.03,9.37,0,.1,.04,.15,.12,.2,2.71,1.55,5.42,3.1,8.12,4.65,.09,.05,.16,.05,.25,0,2.66-1.56,5.33-3.11,8-4.67,.05-.03,.1-.06,.15-.1-.05-.03-.08-.05-.11-.06-1.31-.71-2.63-1.41-3.94-2.12-.1-.05-.16-.03-.25,.01-1.3,.75-2.59,1.49-3.89,2.24-.1,.06-.16,.05-.26,0-1.33-.77-2.65-1.53-3.98-2.29-.1-.06-.13-.11-.13-.22,0-1.52,0-3.05,0-4.57,0-.11,.03-.17,.13-.23,1.33-.76,2.66-1.52,3.98-2.29,.1-.06,.17-.05,.27,0,1.3,.76,2.61,1.5,3.91,2.26,.13,.08,.22,.08,.35,0,.92-.56,1.84-1.12,2.76-1.68,.37-.23,.74-.45,1.14-.69Z"/></g></svg>