<?xml version="1.0" encoding="UTF-8"?><svg id="Capa_2" xmlns="http://www.w3.org/2000/svg" viewBox="0 0 20 20"><defs><style>.cls-1{fill:#fff;}.cls-2{fill:#29a9e1;}</style></defs><g id="Capa_1-2"><g><path class="cls-2" d="M10,20h0C4.48,20,0,15.52,0,10H0C0,4.48,4.48,0,10,0h0c5.52,0,10,4.48,10,10h0c0,5.52-4.48,10-10,10Z"/><path class="cls-1" d="M4.67,13.35c.97,.62,2.12,.98,3.35,.98,4.06,0,6.35-3.43,6.21-6.5,.43-.31,.8-.69,1.09-1.13-.39,.17-.81,.29-1.26,.34,.45-.27,.8-.7,.96-1.21-.42,.25-.89,.43-1.39,.53-.4-.42-.97-.69-1.6-.69-1.41,0-2.45,1.32-2.13,2.68-1.82-.09-3.43-.96-4.51-2.28-.57,.98-.3,2.27,.68,2.92-.36-.01-.7-.11-.99-.27-.02,1.01,.7,1.96,1.75,2.17-.31,.08-.64,.1-.99,.04,.28,.87,1.09,1.5,2.04,1.52-.92,.72-2.08,1.04-3.24,.91Z"/></g></g></svg>