<?xml version="1.0" encoding="UTF-8"?><svg id="Capa_2" xmlns="http://www.w3.org/2000/svg" xmlns:xlink="http://www.w3.org/1999/xlink" viewBox="0 0 105.36 105.36"><defs><style>.cls-1{fill:#fff;}.cls-2,.cls-3{fill:#006dff;}.cls-3{opacity:.35;}.cls-4{clip-path:url(#clippath);}.cls-5{fill:none;}</style><clipPath id="clippath"><rect class="cls-5" x="0" width="105.36" height="105.36" rx="22.84" ry="22.84"/></clipPath></defs><g id="Capa_1-2"><g><rect class="cls-3" x="0" width="105.36" height="105.36" rx="22.84" ry="22.84"/><g class="cls-4"><g><path class="cls-2" d="M92.57,85.42c-2.84-10.44-32.66-14.46-39.89-14.46s-37.05,4.01-39.89,14.46c-2.84,10.44-1.99,19.15-1.99,19.15,0,0,12.48,1.74,41.88,1.74s41.88-1.74,41.88-1.74c0,0,.85-8.7-1.99-19.15Z"/><path class="cls-1" d="M52.68,70.98c-4.07,0-7.98-2.06-11.45-4.44v6.51l8.55,5.07c1.8,1.07,4.01,1.07,5.82,0l8.55-5.07v-6.51c-3.47,2.39-7.38,4.44-11.45,4.44Z"/><path class="cls-1" d="M74.92,40.51c0,14.2-9.96,28.43-22.24,28.43s-22.24-14.23-22.24-28.43,9.96-25.71,22.24-25.71,22.24,11.51,22.24,25.71Z"/><g><path class="cls-1" d="M32.08,51.74l-.65,.07c-1.44,.16-2.72-.93-2.87-2.42l-.7-6.99c-.15-1.49,.89-2.83,2.33-2.99l.65-.07c1.44-.16,2.72,.93,2.87,2.42l.7,6.99c.15,1.49-.89,2.83-2.33,2.99Z"/><path class="cls-1" d="M73.28,51.74l.65,.07c1.44,.16,2.72-.93,2.87-2.42l.7-6.99c.15-1.49-.89-2.83-2.33-2.99l-.65-.07c-1.44-.16-2.72,.93-2.87,2.42l-.7,6.99c-.15,1.49,.89,2.83,2.33,2.99Z"/></g><path class="cls-2" d="M30.19,39.42l.91,7.52,1.09-2.66s-.33-9.29,1.2-12.01c1.53-2.72,4.14-3.4,6.98-8.72,0,0,22.7,4.84,29.24-3.07,0,0,4.61-8.24-.89-14.31-6.05,6.31-18.84,.29-27.59,3.34-3.44,1.2-8,4.74-9.81,12.46-1.99,8.49-1.13,17.46-1.13,17.46Z"/><path class="cls-2" d="M75.18,39.42l-.91,7.52-1.09-2.66s.33-9.29-1.2-12.01c-1.53-2.72-4.14-3.4-6.98-8.72,0,0-5.55-9.26-1.42-12.01,0,0,6.6-4.38,10.47,11.78,2.03,8.48,1.13,16.1,1.13,16.1Z"/></g></g></g></g></svg>