<?xml version="1.0" encoding="UTF-8"?><svg id="Capa_2" xmlns="http://www.w3.org/2000/svg" viewBox="0 0 21.52 22.14"><defs><style>.cls-1{stroke-miterlimit:10;}.cls-1,.cls-2{fill:none;stroke:#006dff;stroke-linecap:round;stroke-width:1.5px;}.cls-2{stroke-linejoin:round;}</style></defs><g id="Capa_1-2"><g><path class="cls-1" d="M13.48,8.55c-.98-.81-1.6-2.03-1.6-3.39,0-2.43,1.97-4.4,4.4-4.4s4.4,1.97,4.4,4.4"/><path class="cls-2" d="M20.05,7.52h0c-.95-.95-2.49-.95-3.44,0L6.2,17.93l.02,3.47,3.42-.02,10.41-10.41c.95-.95,.95-2.49,0-3.44Z"/><polyline class="cls-1" points="3.3 21.39 1.3 21.39 1.3 12.56 10.13 12.56"/><polygon class="cls-1" points="5.71 1.93 7.91 5.74 10.11 9.56 5.71 9.56 1.3 9.56 3.5 5.74 5.71 1.93"/></g></g></svg>