<?xml version="1.0" encoding="UTF-8"?><svg id="Capa_2" xmlns="http://www.w3.org/2000/svg" viewBox="0 0 27.53 27.53"><defs><style>.cls-1{fill:none;stroke:#006dff;stroke-linecap:round;stroke-linejoin:round;stroke-width:1.62px;}</style></defs><g id="Capa_1-2"><g><circle class="cls-1" cx="13.77" cy="13.77" r="3.72"/><path class="cls-1" d="M25.64,11.74l-2.69-.47c-.21-.79-.52-1.54-.92-2.23l1.57-2.24c.37-.52,.3-1.23-.15-1.68l-1.04-1.04c-.45-.45-1.16-.51-1.68-.15l-2.24,1.57c-.69-.4-1.44-.71-2.23-.92l-.47-2.69c-.11-.63-.65-1.09-1.29-1.09h-1.47c-.64,0-1.18,.46-1.29,1.09l-.47,2.69c-.79,.21-1.54,.52-2.23,.92l-2.24-1.57c-.52-.37-1.23-.3-1.68,.15l-1.04,1.04c-.45,.45-.51,1.16-.15,1.68l1.57,2.24c-.4,.69-.71,1.44-.92,2.23l-2.69,.47c-.63,.11-1.09,.65-1.09,1.29v1.47c0,.64,.46,1.18,1.09,1.29l2.69,.47c.21,.79,.52,1.54,.92,2.23l-1.57,2.24c-.37,.52-.3,1.23,.15,1.68l1.04,1.04c.45,.45,1.16,.51,1.68,.15l2.24-1.57c.69,.4,1.44,.71,2.23,.92l.47,2.69c.11,.63,.65,1.09,1.29,1.09h1.47c.64,0,1.18-.46,1.29-1.09l.47-2.69c.79-.21,1.54-.52,2.23-.92l2.24,1.57c.52,.37,1.23,.3,1.68-.15l1.04-1.04c.45-.45,.51-1.16,.15-1.68l-1.57-2.24c.4-.69,.71-1.44,.92-2.23l2.69-.47c.63-.11,1.09-.65,1.09-1.29v-1.47c0-.64-.46-1.18-1.09-1.29Z"/></g></g></svg>