<?xml version="1.0" encoding="UTF-8"?><svg id="Capa_2" xmlns="http://www.w3.org/2000/svg" viewBox="0 0 27.55 17.77"><defs><style>.cls-1{fill:#006dff;}.cls-1,.cls-2{stroke:#006dff;stroke-linecap:round;stroke-miterlimit:10;stroke-width:1.64px;}.cls-2{fill:none;}</style></defs><g id="Capa_1-2"><g><circle class="cls-1" cx="13.77" cy="4.39" r="3.57"/><path class="cls-1" d="M22.44,16.95v-2.06c0-1.52-1.55-3.57-8.66-3.57-7.11,0-8.66,2.06-8.66,3.57v2.06H22.44Z"/><g><path class="cls-2" d="M8.58,8.23c-.38,.21-.82,.33-1.28,.33-1.48,0-2.67-1.2-2.67-2.67s1.2-2.67,2.67-2.67"/><path class="cls-2" d="M5.33,10.56c-3.65,.46-4.51,2.19-4.51,3.17v1.54"/></g><g><path class="cls-2" d="M18.97,8.23c.38,.21,.82,.33,1.28,.33,1.48,0,2.67-1.2,2.67-2.67,0-1.48-1.2-2.67-2.67-2.67"/><path class="cls-2" d="M22.22,10.56c3.65,.46,4.51,2.19,4.51,3.17v1.54"/></g></g></g></svg>